sorry guys something happened to my original torrent.


please seed!!!!!!!





Complete name                            : D:TV ShowsHBOGame Of ThronesSeason 3S03E10 Game Of Thrones  (1920x1080) [Phr0stY] .mkv
Format                                   : Matroska
Format version                           : Version 4 / Version 2
File size                                : 2.35 GiB
Duration                                 : 1h 2mn
Overall bit rate                         : 5365 Kbps
Encoded date                             : UTC 2013-06-10 22:50:17
Writing application                      : mkvmerge v6.2.0 ('Promised Land') built on Apr 28 2013 12:22:01
Writing library                          : libebml v1.3.0 + libmatroska v1.4.0

Video
ID                                       : 1
Format                                   : AVC
Format/Info                              : Advanced Video Codec
Format profile                           : High@L4.0
Format settings, CABAC                   : Yes
Format settings, ReFrames                : 4 frames
Codec ID                                 : V_MPEG4/ISO/AVC
Duration                                 : 1h 2mn
Bit rate                                 : 4874 Kbps
Width                                    : 1920 pixels
Height                                   : 1080 pixels
Display aspect ratio                     : 16:9
Frame rate mode                          : Constant
Frame rate                               : 23.976 fps
Color space                              : YUV
Chroma subsampling                       : 4:2:0
Bit depth                                : 8 bits
Scan type                                : Progressive
Bits/(Pixel*Frame)                       : 0.098
Stream size                              : 2.14 GiB (91%)
Default                                  : Yes
Forced                                   : No
Color primaries                          : BT.709
Transfer characteristics                 : BT.709
Matrix coefficients                      : BT.709

Audio
ID                                       : 2
Format                                   : AC-3
Format/Info                              : Audio Coding 3
Mode extension                           : CM (complete main)
Format settings, Endianness              : Big
Codec ID                                 : A_AC3
Duration                                 : 1h 2mn
Bit rate mode                            : Constant
Bit rate                                 : 384 Kbps
Channel(s)                               : 6 channels
Channel positions                        : Front: L C R, Side: L R, LFE
Sampling rate                            : 48.0 KHz
Bit depth                                : 16 bits
Compression mode                         : Lossy
Stream size                              : 172 MiB (7%)
Title                                    : 5.1
Language                                 : English
Default                                  : Yes
Forced                                   : No

